{"accessors" : [{"bufferView" : 0, "byteOffset" : 0, "componentType" : 5123, "count" : 48, "type" : "SCALAR", "max" : [19], "min" : [0]}, {"bufferView" : 1, "byteOffset" : 0, "componentType" : 5126, "count" : 20, "type" : "VEC3", "max" : [0.597707986831665, 0.016979599371552467, 0.9310420155525208], "min" : [-0.597707986831665, -0.016979599371552467, -0.9310420155525208], "name" : "POSITION"}, {"bufferView" : 1, "byteOffset" : 12, "componentType" : 5126, "count" : 20, "type" : "VEC3", "max" : [0.7172872424125671, 0.6302658319473267, 0.7172868251800537], "min" : [-0.5773534178733826, -0.6302651762962341, -0.5773527026176453], "name" : "NORMAL"}, {"bufferView" : 1, "byteOffset" : 24, "componentType" : 5126, "count" : 20, "type" : "VEC4", "max" : [0.9203755259513855, 0.8165000677108765, 0.5822888612747192, 1], "min" : [-0.40825197100639343, -0.816500186920166, -0.9548481106758118, 1], "name" : "TANGENT"}, {"bufferView" : 1, "byteOffset" : 40, "componentType" : 5126, "count" : 20, "type" : "VEC2", "max" : [0.6947489976882935, 1.9857940673828125], "min" : [0.010188699699938297, 1.7569580078125], "name" : "TEXCOORD_0"}, {"bufferView" : 0, "byteOffset" : 96, "componentType" : 5123, "count" : 9, "type" : "SCALAR", "max" : [4], "min" : [0]}, {"bufferView" : 2, "byteOffset" : 0, "componentType" : 5126, "count" : 5, "type" : "VEC3", "max" : [0.597707986831665, -0.0023974799551069736, 0.9310420155525208], "min" : [-0.597707986831665, -0.0023974799551069736, -0.9310420155525208], "name" : "POSITION"}, {"bufferView" : 2, "byteOffset" : 12, "componentType" : 5126, "count" : 5, "type" : "VEC3", "max" : [0, 1.0000044107437134, 6.123257423982991E-17], "min" : [0, 1.0000044107437134, 6.123257423982991E-17], "name" : "NORMAL"}, {"bufferView" : 2, "byteOffset" : 24, "componentType" : 5126, "count" : 5, "type" : "VEC2", "max" : [0.2170110046863556, 1.4994430541992188], "min" : [0.0033263100776821375, 1.1665840148925781], "name" : "TEXCOORD_0"}, {"bufferView" : 0, "byteOffset" : 116, "componentType" : 5123, "count" : 288, "type" : "SCALAR", "max" : [78], "min" : [0]}, {"bufferView" : 3, "byteOffset" : 0, "componentType" : 5126, "count" : 79, "type" : "VEC3", "max" : [0.6666669845581055, 0.028615200892090797, 1], "min" : [-0.6666669845581055, -0.028615200892090797, -1], "name" : "POSITION"}, {"bufferView" : 3, "byteOffset" : 12, "componentType" : 5126, "count" : 79, "type" : "VEC3", "max" : [0.7172870635986328, 1.0000044107437134, 0.7172870635986328], "min" : [-0.7172870635986328, -1.0000044107437134, -0.7197839617729187], "name" : "NORMAL"}, {"bufferView" : 3, "byteOffset" : 24, "componentType" : 5126, "count" : 79, "type" : "VEC4", "max" : [1.0000044107437134, 0.8011853098869324, 0.9617301821708679, 1], "min" : [-1.0000044107437134, -0.8165000677108765, -0.40825170278549194, 1], "name" : "TANGENT"}, {"bufferView" : 3, "byteOffset" : 40, "componentType" : 5126, "count" : 79, "type" : "VEC2", "max" : [0.9911400079727173, 1.9975340366363525], "min" : [0.0029892800375819206, 1.0028704404830933], "name" : "TEXCOORD_0"}], "asset" : {"generator" : "Aspose.3D 24.9.0", "version" : "2.0"}, "buffers" : [{"uri" : "data:application/octet-stream;base64,", "byteLength" : 5620}], "bufferViews" : [{"buffer" : 0, "byteOffset" : 0, "byteLength" : 692, "target" : 34963}, {"buffer" : 0, "byteOffset" : 696, "byteLength" : 960, "byteStride" : 48, "target" : 34962}, {"buffer" : 0, "byteOffset" : 1660, "byteLength" : 160, "byteStride" : 32, "target" : 34962}, {"buffer" : 0, "byteOffset" : 1824, "byteLength" : 3792, "byteStride" : 48, "target" : 34962}], "images" : [{"uri" : "data:image/png;base64,"}, {"uri" : "data:image/png;base64,"}, {"uri" : "data:image/png;base64,"}, {"uri" : "data:image/jpeg;base64,"}, {"uri" : "data:image/png;base64,"}, {"uri" : "data:image/png;base64,"}, {"uri" : "data:image/png;base64,"}, {"uri" : "data:image/png;base64,"}, {"uri" : "data:image/jpeg;base64,"}], "materials" : [{"name" : "MAT_TabletGlass", "pbrMetallicRoughness" : {"baseColorFactor" : [1, 1, 1, 1], "baseColorTexture" : {"index" : 2, "texCoord" : 0}, "metallicFactor" : 1, "roughnessFactor" : 1, "metallicRoughnessTexture" : {"index" : 1, "texCoord" : 0}}, "normalTexture" : {"index" : 0, "texCoord" : 0, "scale" : 1}, "occlusionTexture" : {"index" : 1, "texCoord" : 0, "strength" : 0}, "emissiveFactor" : [0, 0, 0], "alphaMode" : "OPAQUE", "doubleSided" : true}, {"name" : "MAT_OpacityText", "pbrMetallicRoughness" : {"baseColorFactor" : [1, 1, 1, 1], "baseColorTexture" : {"index" : 4, "texCoord" : 0}, "metallicFactor" : 0, "roughnessFactor" : 1, "metallicRoughnessTexture" : {"index" : 5, "texCoord" : 0}}, "emissiveTexture" : {"index" : 3, "texCoord" : 0}, "emissiveFactor" : [1, 1, 1], "alphaMode" : "OPAQUE", "doubleSided" : true}, {"name" : "MAT_Tablet", "pbrMetallicRoughness" : {"baseColorFactor" : [1, 1, 1, 1], "baseColorTexture" : {"index" : 8, "texCoord" : 0}, "metallicFactor" : 1, "roughnessFactor" : 1, "metallicRoughnessTexture" : {"index" : 7, "texCoord" : 0}}, "normalTexture" : {"index" : 6, "texCoord" : 0, "scale" : 1}, "occlusionTexture" : {"index" : 7, "texCoord" : 0, "strength" : 0}, "emissiveFactor" : [0, 0, 0], "alphaMode" : "OPAQUE", "doubleSided" : true}], "meshes" : [{"primitives" : [{"attributes" : {"POSITION" : 1, "NORMAL" : 2, "TANGENT" : 3, "TEXCOORD_0" : 4}, "indices" : 0, "material" : 0, "mode" : 4}]}, {"primitives" : [{"attributes" : {"POSITION" : 6, "NORMAL" : 7, "TEXCOORD_0" : 8}, "indices" : 5, "material" : 1, "mode" : 4}]}, {"primitives" : [{"attributes" : {"POSITION" : 10, "NORMAL" : 11, "TANGENT" : 12, "TEXCOORD_0" : 13}, "indices" : 9, "material" : 2, "mode" : 4}]}], "nodes" : [{"mesh" : 0, "name" : "defaultMaterial"}, {"children" : [0], "name" : "Tablet_Low"}, {"mesh" : 1, "name" : "defaultMaterial"}, {"children" : [2], "name" : "Tablet_Low"}, {"mesh" : 2, "name" : "defaultMaterial"}, {"children" : [4], "name" : "Tablet_Low"}, {"children" : [1, 3, 5], "matrix" : [1, 0, 0, 0, 0, -4.371139006309477E-08, 0.999999999999999, 0, 0, -0.999999999999999, -4.371139006309477E-08, 0, 0, 0, 0, 1], "name" : "Collada visual scene group"}, {"children" : [6], "matrix" : [1, 0, 0, 0, 0, 2.220446049250313E-16, -1, 0, 0, 1, 2.220446049250313E-16, 0, 0, 0, 0, 1], "name" : "Sketchfab_model"}], "samplers" : [{"magFilter" : 9729, "minFilter" : 9987, "wrapS" : 10497, "wrapT" : 10497}, {"magFilter" : 9729, "minFilter" : 9987, "wrapS" : 10497, "wrapT" : 10497}, {"magFilter" : 9729, "minFilter" : 9987, "wrapS" : 10497, "wrapT" : 10497}, {"magFilter" : 9729, "minFilter" : 9987, "wrapS" : 10497, "wrapT" : 10497}, {"magFilter" : 9729, "minFilter" : 9987, "wrapS" : 10497, "wrapT" : 10497}, {"magFilter" : 9729, "minFilter" : 9987, "wrapS" : 10497, "wrapT" : 10497}, {"magFilter" : 9729, "minFilter" : 9987, "wrapS" : 10497, "wrapT" : 10497}, {"magFilter" : 9729, "minFilter" : 9987, "wrapS" : 10497, "wrapT" : 10497}, {"magFilter" : 9729, "minFilter" : 9987, "wrapS" : 10497, "wrapT" : 10497}], "scene" : 0, "scenes" : [{"nodes" : [7]}], "textures" : [{"sampler" : 0, "source" : 0, "name" : ""}, {"sampler" : 1, "source" : 1, "name" : ""}, {"sampler" : 2, "source" : 2, "name" : ""}, {"sampler" : 3, "source" : 3, "name" : ""}, {"sampler" : 4, "source" : 4, "name" : ""}, {"sampler" : 5, "source" : 5, "name" : ""}, {"sampler" : 6, "source" : 6, "name" : ""}, {"sampler" : 7, "source" : 7, "name" : ""}, {"sampler" : 8, "source" : 8, "name" : ""}]}